<svg xmlns="http://www.w3.org/2000/svg" viewBox="0 0 512 512" width="512" height="512" role="img" aria-label="ZayDroids Asteroids logo">
  <defs>
    <radialGradient id="bg" cx="50%" cy="40%" r="70%">
      <stop offset="0%" stop-color="#1a2238"/>
      <stop offset="60%" stop-color="#0b0f1a"/>
      <stop offset="100%" stop-color="#07090f"/>
    </radialGradient>
    <linearGradient id="rock" x1="0" y1="0" x2="1" y2="1">
      <stop offset="0%" stop-color="#f5a94b"/>
      <stop offset="100%" stop-color="#c96d2b"/>
    </linearGradient>
    <linearGradient id="ship" x1="0" y1="0" x2="1" y2="1">
      <stop offset="0%" stop-color="#8be9ff"/>
      <stop offset="100%" stop-color="#4fb4d6"/>
    </linearGradient>
  </defs>

  <rect x="0" y="0" width="512" height="512" rx="96" fill="url(#bg)"/>

  <g opacity="0.9">
    <circle cx="96" cy="110" r="2" fill="#e8f1ff"/>
    <circle cx="420" cy="96" r="3" fill="#e8f1ff"/>
    <circle cx="460" cy="210" r="2" fill="#e8f1ff"/>
    <circle cx="120" cy="360" r="3" fill="#e8f1ff"/>
    <circle cx="360" cy="420" r="2" fill="#e8f1ff"/>
  </g>

  <g transform="translate(50 30)">
    <path d="M265 82c54 0 98 44 98 98s-44 98-98 98-98-44-98-98 44-98 98-98z" fill="none" stroke="#2a3552" stroke-width="22" opacity="0.5"/>
  </g>

  <g transform="translate(140 130)">
    <path d="M0 90 L60 20 L150 10 L210 70 L205 150 L130 210 L40 190 L5 130 Z" fill="url(#rock)" stroke="#8f4d1f" stroke-width="8"/>
    <circle cx="70" cy="90" r="18" fill="#b86a2f" opacity="0.65"/>
    <circle cx="140" cy="120" r="14" fill="#b86a2f" opacity="0.65"/>
    <circle cx="100" cy="160" r="10" fill="#b86a2f" opacity="0.6"/>
  </g>

  <g transform="translate(290 300) rotate(-20)">
    <path d="M0 50 L46 0 L92 50 L60 58 L60 95 L32 95 L32 58 Z" fill="url(#ship)" stroke="#bfefff" stroke-width="6"/>
    <path d="M40 95 L52 95 L46 125 Z" fill="#ffd166"/>
  </g>

  <g opacity="0.85">
    <path d="M80 420 L150 420" stroke="#6aa1ff" stroke-width="6" stroke-linecap="round"/>
    <circle cx="78" cy="420" r="6" fill="#6aa1ff"/>
  </g>
</svg>
